<?xml version="1.0" encoding="UTF-8"?><svg id="Layer_2" xmlns="http://www.w3.org/2000/svg" viewBox="0 0 309.28 138.06"><defs><style>.cls-1{fill:#ec4237;}.cls-2{fill:#c597be;}.cls-3{fill:#030302;}.cls-4{fill:#010201;}.cls-5{fill:#56b9e8;}.cls-6{fill:#5abae8;}.cls-7{fill:#f3bed4;}.cls-8{fill:#279ad4;}.cls-9{fill:#f7d50f;}.cls-10{fill:#020202;}.cls-11{fill:#005784;}.cls-12{fill:#0c5ca9;}.cls-13{fill:#44bca1;}.cls-14{fill:#bd6aab;}.cls-15{fill:#5e318e;}.cls-16{fill:#f7972e;}.cls-17{fill:#030303;}.cls-18{fill:#2b84c3;}.cls-19{fill:#a8cde0;}.cls-20{fill:#a3288c;}.cls-21{fill:#020201;}.cls-22{fill:#aaa7a7;}.cls-23{fill:#f59f88;}.cls-24{fill:#050505;}.cls-25{fill:#787575;}.cls-26{fill:#c0d432;}.cls-27{fill:#a7a4a4;}.cls-28{fill:#55b9e8;}.cls-29{fill:#fdf388;}.cls-30{fill:#dbe9e5;}.cls-31{fill:#7b4580;}.cls-32{fill:#010101;}</style></defs><g id="Layer_1-2"><path class="cls-23" d="M0,.04c.1,0,.2,0,.3,.01,.52,.6,.44,1.34,.44,2.05,.01,3.58,0,7.17,.01,10.75,0,1.59,.12,1.7,1.73,1.71,3.4,.03,6.8-.03,10.19,.03,3.43-.05,6.85-.02,10.28-.01,.48,0,.95,.01,1.39,.24,.19,.1,.27,.25,.24,.46-.19,.24-.45,.34-.73,.39-3.62,.17-7.24,.09-10.85,.07-4.17-.04-8.35,.2-12.52-.13-.17-.08-.33-.18-.48-.3V.04Z"/><path class="cls-2" d="M.2,35.78H.1s-.1-.01-.1-.01V15.31c.09,0,.18,0,.27,.02,.48,.49,.46,1.12,.47,1.73,0,1.61,.03,3.22,0,4.83-.03,1.47,.05,2.95-.02,4.42,.08,2.63,.04,5.27,.02,7.9,0,.56,.02,1.17-.53,1.56Z"/><path class="cls-25" d="M.23,123.99l-.13,.05-.1-.1v-4.32c.09,.02,.18,0,.26-.03,.74,1.47,.78,2.94-.03,4.4Z"/><path class="cls-27" d="M.23,84.78l-.12,.03-.11-.06v-2.88c.07-.07,.15-.08,.23-.03,.71,.98,.71,1.96,0,2.93Z"/><path class="cls-22" d="M15.29,138.06c.04-.09,.03-.18-.02-.26,.98-.67,1.95-.68,2.92,.01-.01,.08-.02,.16-.02,.24h-2.89Z"/><path class="cls-22" d="M258.51,138.06c.02-.09,0-.17-.02-.25,.97-.68,1.95-.68,2.92,0-.03,.08-.03,.17-.02,.25h-2.89Z"/><path class="cls-32" d="M301.13,122.87v-13.4q0-3.11,3.1-3.11c1.25,0,2.5,.07,3.75-.02,1.02-.07,1.28,.26,1.27,1.26-.05,5.66-.02,11.32-.02,16.99,0,3.79-.05,7.58,.03,11.37,.02,1.11-.32,1.39-1.38,1.34-1.82-.08-3.65-.06-5.48,0-.76,.02-1.2-.24-1.65-.85-3.82-5.28-7.68-10.53-11.53-15.79-.16-.22-.33-.43-.72-.93,0,.75,0,1.2,0,1.65,0,4.85-.04,9.69,.03,14.54,.02,1.18-.36,1.44-1.45,1.39-1.92-.08-3.84-.05-5.76,0-.69,.02-.89-.18-.89-.88,.02-9.74,.02-19.48,0-29.22,0-.75,.28-.85,.92-.84,2.11,.03,4.23,.05,6.34,0,.77-.02,1.2,.25,1.64,.85,3.53,4.84,7.09,9.66,10.65,14.47,.3,.4,.48,.92,1.15,1.21Z"/><path class="cls-32" d="M85.42,121.74c0-4.7,.03-9.41-.02-14.11,0-.96,.16-1.31,1.22-1.3,6.82,.05,13.65,.04,20.48,0,.87,0,1.17,.17,1.12,1.09-.08,1.68-.07,3.36,0,5.04,.03,.83-.25,1.05-1.05,1.04-4.13-.04-8.27,.01-12.4-.04-.94-.01-1.32,.12-1.31,1.2,.04,3.41,0,3.41,3.43,3.41,3.27,0,6.54,.03,9.8-.02,.89-.01,1.29,.16,1.23,1.16-.09,1.58-.08,3.17,0,4.75,.04,.92-.21,1.23-1.18,1.21-3.99-.06-7.98,0-11.97-.05-.97-.01-1.39,.17-1.3,1.24,.11,1.23-.41,2.9,.21,3.61,.73,.83,2.43,.25,3.71,.26,3.27,.04,6.54,.04,9.8,0,.81-.01,1.06,.21,1.03,1.03-.06,1.73-.04,3.46,0,5.18,.01,.62-.17,.82-.8,.82-7.02-.02-14.03-.03-21.05,0-.96,0-.94-.47-.94-1.15,.02-4.8,0-9.6,0-14.4Z"/><path class="cls-32" d="M33.67,121.81c0-4.7,.03-9.41-.02-14.11-.01-1,.13-1.38,1.29-1.37,6.73,.07,13.46,.05,20.18,.01,1.02,0,1.47,.15,1.38,1.3-.12,1.58-.08,3.17,0,4.75,.04,.92-.31,1.13-1.16,1.12-4.13-.04-8.27,0-12.4-.04-.84,0-1.14,.14-1.15,1.08-.01,3.54-.05,3.54,3.45,3.54,3.22,0,6.44,.03,9.66-.02,.96-.02,1.38,.18,1.32,1.24-.09,1.58-.07,3.17,0,4.75,.04,.9-.26,1.14-1.14,1.13-3.99-.04-7.98,.01-11.97-.04-.95-.01-1.43,.15-1.3,1.23,.15,1.27-.54,2.97,.29,3.7,.71,.63,2.37,.19,3.62,.19,3.22,0,6.44,.03,9.66-.02,.87-.01,1.18,.19,1.13,1.11-.08,1.63-.05,3.26,0,4.89,.02,.7-.13,1.04-.94,1.03-7.02-.03-14.03-.03-21.05,0-.92,0-.84-.49-.84-1.09,0-4.8,0-9.6,0-14.4Z"/><path class="cls-32" d="M18.2,137.81c-.97,0-1.95,0-2.92-.01-8.02-.45-14.37-6.28-15.04-13.81,0-1.47,.02-2.93,.03-4.4,.49-6.18,5.26-11.62,11.74-13.14,5.83-1.37,11.26-.73,15.69,3.8,.91,.93,1.61,2.01,2.3,3.12,.39,.63,.36,.97-.37,1.29-1.79,.78-3.57,1.62-5.32,2.49-.57,.28-.84,.28-1.23-.32-2.14-3.28-4.96-4.42-8.46-3.53-3.35,.85-5.93,3.94-6.22,7.46-.46,5.51,2.77,9.52,8,9.9,2.93,.21,5.09-1.16,6.58-3.55,.48-.77,.79-.81,1.52-.44,1.61,.83,3.25,1.62,4.92,2.33,.86,.37,1.04,.69,.51,1.55-2.69,4.4-6.51,6.92-11.7,7.27Z"/><path class="cls-16" d="M24.58,15.04c-3.94,0-7.87,0-11.81,0-.52-.22-.77-.67-1.04-1.13C9.4,9.91,7.13,5.88,4.77,1.9c-.32-.55-.84-1.09-.49-1.83,.33-.02,.67-.06,1-.06C22.17,0,39.05,0,55.93,0c.33,0,.67,.04,1,.07-.14,.75-.83,.89-1.36,1.14-5.77,2.72-11.58,5.35-17.35,8.05-3.56,1.66-7.13,3.31-10.7,4.95-.92,.42-1.78,1.16-2.93,.84Z"/><path class="cls-21" d="M219.2,125.38c0,3.55-.04,7.1,.02,10.66,.02,1.04-.33,1.3-1.3,1.26-1.92-.07-3.85-.08-5.77,0-.99,.04-1.2-.3-1.19-1.22,.04-6.82,.02-13.63,.02-20.45q0-2.14-2.21-2.14c-1.78,0-3.56-.05-5.33,.02-.91,.03-1.16-.29-1.13-1.16,.06-1.58,.08-3.17,0-4.75-.06-1.01,.26-1.27,1.27-1.27,7.16,.04,14.32,.02,21.48,.02q2.67,0,2.67,2.67c0,1.01-.06,2.02,.02,3.02,.09,1.08-.19,1.53-1.39,1.46-2.01-.11-4.04,.02-6.05-.05-.89-.03-1.13,.22-1.12,1.11,.05,3.6,.02,7.2,.02,10.8Z"/><path class="cls-28" d="M52.14,15.3c-4.1,11.56-8.2,23.13-12.31,34.69-.06,.17-.17,.33-.26,.5-.95,.24-1.5-.49-2.13-.95-2.79-2.03-5.56-4.09-8.37-6.1-.32-.29-.67-.57-.54-1.09,4.92-8.36,9.72-16.78,14.58-25.17,.43-.74,.73-1.58,1.48-2.1,.15-.07,.31-.11,.47-.14,1.91-.13,3.82-.06,5.74-.05,.47,0,.96,.02,1.33,.41Z"/><path class="cls-32" d="M60.9,121.78c0-4.75,.03-9.51-.02-14.26-.01-.95,.26-1.21,1.19-1.18,1.97,.07,3.94,.08,5.91,0,.94-.04,1.08,.3,1.08,1.14-.03,7.15,0,14.31-.04,21.46,0,1.05,.21,1.39,1.33,1.36,3.36-.08,6.73,0,10.1-.05,.83-.01,1.06,.23,1.03,1.04-.06,1.68-.06,3.36,0,5.04,.03,.78-.25,.95-.99,.95-6.2-.03-12.41-.03-18.61,0-.9,0-.99-.37-.98-1.11,.03-4.8,.01-9.6,.01-14.41Z"/><path class="cls-10" d="M.23,84.78c0-.98,0-1.96,0-2.93,.62-6.09,3.68-10.48,9.49-12.5,5.68-1.98,10.98-1.09,15.42,3.27,1.23,1.21,1.14,1.14-.25,2.17-1.13,.83-1.77,.71-2.82-.25-3.03-2.78-6.65-3.46-10.57-2.2-3.9,1.25-6.28,4.04-7.13,7.95-1.08,4.95,.01,9.35,4.2,12.6,3.79,2.94,9.92,2.67,13.48-.47,.3-.27,.54-.5,.53-.94-.02-1.54-.04-3.07,0-4.61,.02-.77-.45-.69-.93-.69-2.6,0-5.19-.04-7.79,.02-.91,.02-1.32-.3-1.08-1.14,.22-.75-.77-2.14,.7-2.2,4.03-.14,8.08-.04,12.12-.06,.59,0,.74,.27,.73,.79-.01,3.07-.02,6.15,0,9.22,0,.63-.42,.95-.8,1.3-4.7,4.29-10.17,5.32-16.03,3.19-5.71-2.07-8.72-6.47-9.29-12.51Z"/><path class="cls-10" d="M263.73,83.23c0-4.37,.04-8.74-.03-13.1-.01-1.04,.29-1.25,1.28-1.24,5.48,.05,10.96,.05,16.44,0,1.07-.01,1.52,.23,1.32,1.33-.05,.28-.05,.58,0,.86,.17,1.06-.34,1.25-1.3,1.24-4.28-.05-8.55,.01-12.83-.04-.97-.01-1.2,.28-1.17,1.19,.06,2.25,.07,4.51,0,6.77-.03,.88,.2,1.12,1.1,1.11,4.18-.05,8.36,0,12.54-.05,1.01-.01,1.44,.15,1.39,1.3-.09,2.08-.01,2.08-2.04,2.08-3.94,0-7.88,.03-11.82-.02-.96-.01-1.19,.27-1.17,1.19,.06,2.49,.06,4.99,0,7.49-.02,.84,.25,1.02,1.05,1.02,4.28-.04,8.56,.02,12.83-.05,1.13-.02,1.49,.27,1.44,1.42-.09,1.99-.02,1.99-1.95,1.99-5.29,0-10.57-.03-15.86,.03-1.03,.01-1.26-.28-1.25-1.27,.06-4.41,.02-8.83,.02-13.25Z"/><path class="cls-10" d="M113.99,83.33c0-4.42,.03-8.83-.02-13.25,0-.92,.21-1.21,1.17-1.2,5.57,.05,11.15,.04,16.72,0,.82,0,1.29,.12,1.14,1.07-.06,.37-.06,.77,0,1.15,.15,.97-.27,1.21-1.2,1.2-4.28-.04-8.55,.01-12.83-.04-.99-.01-1.31,.2-1.28,1.24,.09,2.2,.09,4.42,0,6.62-.05,1.07,.35,1.22,1.3,1.21,4.13-.05,8.27,.05,12.4-.06,1.46-.04,1.35,.7,1.33,1.65-.03,.94,.27,1.84-1.34,1.8-4.18-.12-8.36-.02-12.54-.06-.86,0-1.16,.17-1.13,1.09,.07,2.45,.07,4.9,0,7.34-.03,.99,.21,1.29,1.24,1.27,4.23-.06,8.46,.07,12.69-.07,1.91-.06,1.23,1.15,1.37,2.05,.18,1.14-.28,1.41-1.39,1.4-5.48-.06-10.96-.05-16.44,0-.91,0-1.22-.19-1.2-1.17,.06-4.41,.02-8.83,.02-13.25Z"/><path class="cls-32" d="M149.65,83.27c0-4.37,.03-8.73-.02-13.1-.01-.96,.17-1.32,1.23-1.29,2.43,.06,2.43,0,2.43,2.36,0,2.98,.03,5.95-.02,8.92-.01,.85,.15,1.16,1.09,1.15,4.85-.05,9.71-.05,14.56,0,.97,.01,1.07-.35,1.06-1.16-.04-3.36,.01-6.72-.04-10.08-.01-.9,.18-1.23,1.16-1.21,2.59,.04,2.59-.01,2.59,2.63,0,8.3-.02,16.6,.03,24.9,0,1.06-.22,1.38-1.32,1.34-2.44-.09-2.44-.02-2.44-2.51,0-3.21-.02-6.43,.02-9.64,.01-.8-.19-1.07-1.03-1.06-4.85,.04-9.71,.04-14.56,0-.92,0-1.12,.3-1.11,1.16,.04,3.6-.02,7.2,.04,10.8,.02,1-.24,1.29-1.25,1.26-2.4-.06-2.41,0-2.41-2.39v-12.09Z"/><path class="cls-32" d="M239.47,121.92c0,4.7-.03,9.4,.02,14.1,.01,.96-.15,1.34-1.22,1.29-1.96-.1-3.94-.06-5.91-.01-.76,.02-.97-.23-.97-.98,.02-9.69,.03-19.38,0-29.06,0-.84,.36-.91,1.02-.9,2.02,.03,4.04,.05,6.05,0,.83-.03,1.03,.24,1.02,1.04-.04,4.84-.02,9.69-.02,14.53Z"/><path class="cls-18" d="M28.55,42.44c.22,.27,.44,.53,.66,.8-.03,.07-.06,.14-.08,.21-2.59,3.99-4.76,8.23-7.19,12.31-.53,.9,0,.95,.68,.95,2.26,0,4.52-.03,6.78,0,2.5,.04,5-.15,7.49,.11,.15,.06,.27,.15,.37,.27-.11,.27-.35,.29-.59,.28-5.4-.02-10.8-.04-16.2-.05-1.42-.7-2.41-1.93-3.39-3.08-1.6-1.87-3.37-3.55-5.09-5.29-1.35-1.37-2.49-2.93-3.91-4.23-.25-.23-.44-.51-.46-.87,.06-.63,.53-1,.93-1.39,2.88-2.77,5.97-5.3,8.97-7.94,.13-.04,.27-.04,.41-.01,3.58,2.49,7.13,5.02,10.54,7.74,.03,.06,.05,.13,.07,.19Z"/><path class="cls-10" d="M87.64,83.11c0,6.06,3.27,10.4,8.76,11.57,3.59,.76,6.8-.19,9.23-2.99,.78-.9,1.26-.78,2.08-.3,2.07,1.2,2.09,1.18,.45,2.83-4.12,4.16-9.06,4.94-14.45,3.25-5.48-1.72-8.78-5.61-9.69-11.21-1.05-6.48,.82-11.98,6.59-15.65,5.88-3.74,13.55-2.65,18.08,2.38,.8,.88,.94,1.45-.31,1.93-.4,.15-.77,.38-1.13,.62-.52,.35-.85,.34-1.31-.2-2.76-3.24-6.3-4.28-10.36-3.16-4.03,1.11-6.49,3.89-7.59,7.88-.29,1.07-.38,2.17-.36,3.06Z"/><path class="cls-3" d="M286.04,55.44h6.53c5,0,10,0,15,0,.68,0,1.54-.37,1.56,.99,.03,1.33-.78,1.03-1.49,1.03-7.74,0-15.48,.01-23.22-.02-.55,0-1.37,.44-1.63-.35-.27-.85,.03-1.57,.83-2.22,3.08-2.52,6.12-5.1,9.1-7.74,3.84-3.41,7.59-6.93,10.56-11.17,1.75-2.49,3.16-5.12,3.49-8.22,.58-5.59-2.85-9.9-8.44-10.4-5.05-.45-9.55,.75-12.79,4.98-.74,.96-1.02-.06-1.46-.24-.6-.24-.68-.58-.22-1.17,2.72-3.45,6.38-5.11,10.64-5.58,3.36-.37,6.6,.06,9.53,1.91,4.24,2.67,5.94,7.52,4.5,12.84-1.35,4.99-4.54,8.79-8,12.41-4.38,4.59-9.3,8.59-14.48,12.93Z"/><path class="cls-24" d="M253.2,55.44c4.15,0,7.94,0,11.73,0,3.41,0,6.83,.02,10.24-.02,.84,0,1.18,.18,1.19,1.11,0,.96-.49,.95-1.17,.95-7.98-.01-15.96,0-23.94-.02-.45,0-1.17,.34-1.33-.39-.15-.68-.14-1.37,.56-1.93,2.17-1.75,4.3-3.54,6.4-5.36,4.68-4.06,9.36-8.13,13.07-13.14,1.92-2.59,3.52-5.35,3.93-8.65,.69-5.64-2.52-9.94-8.21-10.59-5.09-.58-9.66,.62-12.94,4.9-.62,.81-.93,.21-1.35-.06-.48-.31-.99-.55-.39-1.3,2.06-2.56,4.67-4.22,7.83-5.04,3.62-.94,7.21-1,10.7,.52,5.74,2.5,8.02,8.21,5.88,14.67-1.39,4.19-4.09,7.55-7.04,10.73-4.42,4.76-9.46,8.84-14.42,13.01-.14,.12-.28,.24-.73,.63Z"/><path class="cls-10" d="M190.09,55.44c2.51,0,4.6,0,6.7,0,5.05,0,10.1,.01,15.14-.01,.83,0,1.3,.06,1.3,1.13,0,1.14-.69,.91-1.32,.91-7.93,0-15.87,0-23.8-.01-.46,0-1.17,.33-1.33-.41-.15-.69-.09-1.37,.59-1.92,2.74-2.26,5.47-4.54,8.14-6.87,4.17-3.63,8.23-7.37,11.51-11.86,1.76-2.41,3.16-4.98,3.71-7.99,1.06-5.82-2.76-10.72-8.72-11.09-4.97-.31-9.31,.92-12.48,5.05-.72,.93-1.01-.12-1.46-.3-.73-.29-.52-.73-.13-1.21,2.73-3.34,6.33-5.04,10.55-5.5,2.6-.29,5.17-.08,7.63,.9,5.66,2.26,8.24,8.04,6.35,14.25-1.51,4.98-4.77,8.8-8.29,12.43-4.28,4.42-9.05,8.28-14.08,12.52Z"/><path class="cls-26" d="M52.14,15.3c-2.47-.03-4.94-.06-7.4-.1-.35-.66,.19-1.08,.45-1.53,1.06-1.81,2.06-3.66,3.1-5.49-2.19,2.1-4.58,3.96-6.76,6.06-.59,.57-1.16,1.14-1.98,1.38-.24,.07-.48,.09-.73,.1-4.23,.12-8.45,.04-12.67,.04-.57,0-1.17,.03-1.58-.51,0-.07,0-.14,.01-.2,3.54-1.59,7.08-3.17,10.61-4.79,6.71-3.09,13.41-6.2,20.11-9.3,.56-.26,1.09-.59,1.63-.88,.94,.11,.37,.65,.25,.99-1.67,4.75-3.36,9.5-5.04,14.24Z"/><path class="cls-12" d="M7.7,43.77c2.62,2.91,5.38,5.7,8.06,8.56,1.56,1.67,3.22,3.26,4.71,5-6.71-.01-13.42-.02-20.14-.04,0-2.36,0-4.73,0-7.09,2.09-2.38,4.58-4.33,6.98-6.39,.13-.06,.26-.08,.4-.05Z"/><path class="cls-10" d="M104.13,18.44c0,5.04-.02,9.64,.01,14.24,0,.86,0,1.38-1.16,1.39-1.18,0-1.15-.53-1.15-1.38,.03-5.28,0-10.56,.03-15.83,0-.5-.37-1.38,.32-1.47,.85-.11,1.83-.45,2.64,.51,3.06,3.63,6.19,7.2,9.29,10.79,1.12,1.29,2.24,2.58,3.6,4.15,0-2.21,0-4.09,0-5.98,0-2.78,.03-5.57-.02-8.35-.02-.87,.13-1.25,1.14-1.23,.93,.02,1.2,.24,1.19,1.19-.05,5.33-.01,10.65-.04,15.98,0,.51,.35,1.38-.33,1.49-.85,.13-1.83,.44-2.63-.52-2.96-3.53-5.99-6.99-9-10.48-1.21-1.4-2.42-2.8-3.89-4.49Z"/><path class="cls-5" d="M168.78,52.76c0,1.25,.02,2.5-.01,3.74,0,.36,.31,.98-.45,.95-.48-.02-1.18,.21-1.33-.52-.25-1.22-.76-.82-1.57-.49-4.45,1.82-8.85,2.18-12.91-.98-2.48-1.93-3.01-4.69-2.85-7.61,.29-5.53,4.03-9.07,9.6-9.23,2.85-.08,5.54,.34,7.95,1.98,.52,.35,1.03,.69,.4,1.33-.43,.43-.6,1.32-1.64,.56-2.66-1.94-5.72-2.11-8.79-1.35-3.71,.92-5.49,4.05-5.12,8.52,.27,3.21,2.8,5.64,6.36,5.97,2.22,.2,4.4,0,6.51-.84,1.11-.44,1.66-1.02,1.62-2.33-.1-2.92-.02-2.92-2.99-2.92-.91,0-1.83-.04-2.74,0-.77,.04-.97-.3-.98-1.02-.02-.8,.34-.96,1.04-.95,2.31,.03,4.61,.03,6.92,0,.77-.01,1.01,.28,.98,1.01-.04,1.39-.01,2.78-.01,4.18,.01,0,.02,0,.03,0Z"/><path class="cls-1" d="M4.28,.06c1.82,3.69,4.05,7.16,6.06,10.74,.8,1.42,1.62,2.82,2.43,4.24-3.78,.02-7.56,0-11.34,.07-1.02,.02-1.16-.42-1.16-1.28,.03-4.59,.02-9.18,.02-13.77,1.33,0,2.66,0,3.99,0Z"/><path class="cls-5" d="M70.93,15.46c-4.46,12.84-8.89,25.58-13.32,38.32-.35,.99-.72,1.98-1.02,2.99-.16,.53-.41,.8-.99,.85-1.27,.12-1.43-.07-1.01-1.28,4.59-13.14,9.21-26.28,13.74-39.44,.48-1.38,1.1-1.88,2.59-1.43Z"/><path class="cls-32" d="M140.37,15.31c2.64,0,5.28,.02,7.92-.01,.72,0,1.12,.05,1.13,.97,0,.95-.34,1.1-1.17,1.08-1.77-.05-3.56,.06-5.33-.04-1.19-.07-1.62,.17-1.59,1.51,.1,4.65,.01,9.3,.06,13.95,.01,.96-.16,1.31-1.22,1.31-1.09,0-1.22-.42-1.21-1.34,.04-4.74,0-9.49,.04-14.23,.01-.96-.27-1.22-1.2-1.18-1.97,.07-3.94-.02-5.9,.04-.84,.03-.92-.34-.91-1.02,.01-.65,.02-1.06,.88-1.04,2.83,.05,5.66,.02,8.49,.02Z"/><path class="cls-8" d="M37.26,57.09c-.09,0-.18,0-.26,0-1.45-1.27-2.04-3.09-3-4.67-1.54-2.53-3.01-5.11-4.47-7.69-.25-.45-.61-.88-.41-1.46,0,0,.1-.03,.1-.03,2.92,1.78,5.54,3.98,8.32,5.95,.66,.46,1.36,.87,2.04,1.3-.57,2.27-1.44,4.44-2.31,6.61Z"/><path class="cls-32" d="M127.9,24.69c0,2.78-.05,5.56,.03,8.34,.03,1.04-.49,1.02-1.23,1.01-.71,0-1.23,.06-1.22-1,.06-5.61,.05-11.21,0-16.82,0-.98,.48-.96,1.14-.91,.61,.04,1.34-.27,1.3,.89-.08,2.82-.02,5.65-.02,8.48Z"/><path class="cls-6" d="M101.7,54.78c1.31-.31,1.26,.52,1.34,1.47,.11,1.28-.52,1.32-1.52,1.39-1.35,.09-1.38-.56-1.44-1.62-.07-1.36,.65-1.37,1.62-1.25Z"/><path class="cls-30" d="M24.57,15.25c4.9,.02,9.81,.03,14.71,.05-.14,1.3-1.26,1.85-2.07,2.58-3.41,3.07-6.86,6.08-10.26,9.16-1.52,1.37-2.97,2.84-4.72,3.94-.14,.01-.28-.01-.41-.08-2.07-2.99-3.72-6.23-5.54-9.37-.39-.68-1.07-1.28-.83-2.2,.16-.31,.43-.52,.73-.65,2.56-1.14,4.98-2.61,7.72-3.31l.66-.12Z"/><path class="cls-14" d="M.31,21.94c-.01-2.2-.03-4.4-.04-6.6,4.25-.07,8.49-.14,12.74,.04,1.18,1.12,2.03,2.44,2.41,4.04-.18,.59-.74,.69-1.2,.91-3.22,1.57-6.54,2.93-9.73,4.57-.13,.05-.27,.06-.41,.05-1.32-.93-2.84-1.6-3.77-3.01Z"/><path class="cls-7" d="M15.28,19.39c-.76-1.34-1.51-2.68-2.27-4.02,3.64,0,7.27,0,10.9-.01-2.81,1.35-5.61,2.7-8.42,4.05-.08,.09-.16,.08-.22-.02Z"/><path class="cls-20" d="M4.05,24.83c.08,0,.17,0,.25-.02,.55-.19,.91,.18,1.28,.45,3.73,2.73,7.47,5.45,11.2,8.18,.4,.3,.94,.53,.91,1.18-2.82,2.91-6.08,5.33-8.99,8.14-.34,.33-.67,.67-1.01,1.01-.07,0-.14,0-.21,0-.96-.23-1.48-1.03-2.05-1.69-1.42-1.6-2.88-3.17-4.41-4.66-.32-.31-.5-.69-.7-1.07-.04-.19-.08-.37-.12-.56,.04-3.16,.08-6.33,.11-9.49,1.08-.91,2.17-1.8,3.74-1.47Z"/><path class="cls-15" d="M.33,36.34c2.62,2.24,4.76,4.96,7.17,7.42-.83,1.45-2.3,2.27-3.5,3.32-1.2,1.06-2.17,2.41-3.68,3.12,0-4.62,0-9.24,0-13.86Z"/><path class="cls-31" d="M4.05,24.83c-1.37,.17-2.44,1.11-3.74,1.47,0-1.45,0-2.9-.01-4.35,1.26,.95,2.7,1.66,3.75,2.89Z"/><path class="cls-32" d="M139.78,127.1c-.64-2.76-2.28-4.65-5.12-5.78,3.78-1.75,5.41-5.16,4.45-8.88-.94-3.65-4.06-6-8.26-6.04-5.67-.06-11.34,0-17.01-.06-1-.01-1.15,.34-1.15,1.22,.04,4.13,.02,8.25,.02,12.38,0,5.37,0,10.75,.02,16.12,0,.47-.38,1.24,.66,1.23,6.48-.04,12.98,.15,19.45-.18,4.88-.25,8.05-5.19,6.93-10Zm-18.98-13.24c.07-.63,.35-.67,.83-.66,2.3,.02,4.61-.03,6.91,.04,1.66,.05,2.55,1,2.52,2.5-.02,1.47-.97,2.39-2.61,2.45-1.1,.04-2.21,0-3.31,0-.19,0-.38,0-.58,0-4.17,0-4.26-.12-3.77-4.33Zm8.28,16.59c-2.49,.09-4.99,.02-7.48,.04-.53,0-.84-.14-.79-.72,0-.09,0-.19,0-.29,.03-1.42-.48-3.36,.25-4.14,.85-.91,2.8-.15,3.92-.26,1.55,0,2.75-.05,3.95,.01,1.7,.08,2.71,1.12,2.72,2.69,0,1.55-.91,2.61-2.57,2.67Z"/><path class="cls-32" d="M164.43,126.04c5.66-2.61,6.79-7.68,5.73-12.26-1.06-4.58-5.06-7.38-10.51-7.41-4.81-.03-9.62,0-14.42-.02-.75,0-1.08,.11-1.08,.99,.03,9.65,.03,19.3,0,28.95,0,.87,.31,1.02,1.08,1,2.02-.04,4.04-.05,6.06,0,.83,.02,1.06-.24,1.04-1.06-.05-2.35-.02-4.71-.02-7.06,0-2.15,0-2.07,2.19-2.18,1.27-.06,1.95,.29,2.5,1.49,1.2,2.65,2.58,5.22,3.89,7.82,.23,.46,.35,.97,1.06,.97,2.83-.03,5.65-.01,8.71-.01-2.13-3.85-4.16-7.51-6.23-11.24Zm-5.47-6.15c-1,.07-2.01,.01-3.24,.01-.95-.12-2.52,.52-3.2-.25-.58-.65-.19-2.18-.19-3.32-.01-2.85,0-2.85,2.91-2.85,1.2,0,2.4-.03,3.59,0,2.02,.06,3.38,1.32,3.4,3.11,.02,1.83-1.25,3.14-3.26,3.28Z"/><path class="cls-32" d="M275.59,116.44c-2.15-6.58-7.19-9.85-13.9-10.51-9.04-.9-18.19,4.58-18.37,15.91-.14,8.74,6.38,15.47,15.17,15.96h2.92c11.2-.74,17.59-10.88,14.17-21.36Zm-15.66,14.31c-4.84-.04-8.34-3.77-8.34-8.89,0-5.13,3.5-8.87,8.32-8.88,4.82,0,8.36,3.74,8.37,8.86,.01,5.08-3.6,8.94-8.35,8.9Z"/><path class="cls-32" d="M204.77,136.89c-3.74-9.91-7.49-19.81-11.22-29.73-.24-.64-.6-.83-1.26-.81-2.21,.04-4.42,.02-6.63,.02-2.53,0-2.54,0-3.44,2.39-3.43,9.11-6.85,18.22-10.31,27.32-.35,.91-.36,1.29,.78,1.22,1.39-.08,2.79,0,4.18-.03,1.24-.03,2.76,.49,3.64-.21,.79-.63,.96-2.11,1.28-3.25,.23-.8,.65-.98,1.43-.96,2.4,.05,4.81,0,7.21,.03,1.24,.02,2.76-.5,3.63,.21,.8,.64,.91,2.13,1.32,3.25,.03,.09,.1,.17,.11,.26,.09,.51,.38,.69,.9,.69,2.78-.02,5.56,0,8.34,0,.02-.2,.06-.31,.03-.39Zm-13.88-11.01c-2.11-.03-4.22,0-6.58,0,1.29-3.78,2.52-7.4,3.86-11.33,1.24,3.68,2.32,7.02,3.51,10.32,.35,.98,0,1.03-.79,1.02Z"/><path class="cls-29" d="M22.16,30.87c3.88-3.46,7.78-6.9,11.61-10.4,1.86-1.7,3.94-3.17,5.51-5.17,.19-.02,.38-.05,.56-.07,1.56-.34,3.12-.76,4.65,.09-2.53,4.46-5.04,8.92-7.58,13.37-2.43,4.24-4.89,8.46-7.35,12.68-.25,.43-.34,1.04-1.02,1.08,0,0,.02-.03,.02-.03-1.83-2.24-2.98-4.9-4.47-7.34-.57-.94-1.14-1.88-1.64-2.87-.21-.41-.59-.79-.3-1.32Z"/><path class="cls-9" d="M44.5,15.31c-1.55-.03-3.1-.06-4.65-.09,2.53-2.26,5.05-4.53,7.58-6.78,.44-.4,.77-.97,1.7-1-1.5,2.66-2.94,5.21-4.39,7.76-.07,.06-.15,.09-.24,.11Z"/><path class="cls-32" d="M207.44,79.97c-.97-5.64-5.09-9.95-10.75-11.22-5.76-1.29-11.67,.86-14.88,5.47-2.01,2.89-2.69,6.13-2.66,9.63,.08,9.62,8.36,16.23,17.71,14.04,6.67-1.57,10.86-7.15,10.87-14.8,.06-.85-.1-1.99-.29-3.12Zm-4.7,8.99c-1.67,3.82-5.14,5.96-9.37,5.95-4.37-.01-7.91-2.36-9.47-6.43-1.44-3.75-1.4-7.52,.4-11.14,1.95-3.92,5.27-5.71,9.6-5.55,4.11,.15,7.13,2.16,8.81,5.88,1.68,3.71,1.65,7.55,.02,11.29Z"/><path class="cls-4" d="M301.52,85.98c1.47-.12,2.55-.5,3.54-1.1,3.18-1.9,4.59-5.8,3.56-9.8-.92-3.54-4.07-6.05-7.94-6.14-3.65-.08-7.3,.02-10.95-.06-1.15-.03-1.52,.2-1.51,1.45,.07,8.25,.03,16.5,.03,24.76,0,2.8,0,2.77,2.86,2.66,.71-.03,.88-.25,.87-.92-.04-2.06-.05-4.13,0-6.19,.04-1.42-.64-3.36,.28-4.11,.88-.71,2.75-.17,4.18-.26,.84-.06,1.29,.28,1.72,.96,2.04,3.24,4.12,6.45,6.2,9.66,.25,.38,.38,.87,1.02,.84,1.22-.04,2.44-.01,3.91-.01-2.64-3.99-5.13-7.77-7.76-11.74Zm-8.82-2.92c-.7,.01-.76-.31-.75-.87,.02-1.54,0-3.07,0-4.61,0-1.44,.03-2.88-.01-4.32-.02-.71,.13-1.01,.93-.99,2.35,.06,4.71-.03,7.07,.03,2.96,.08,5.03,2.2,5.09,5.12,.07,3.03-1.88,5.39-4.84,5.57-2.49,.15-5,.02-7.5,.07Z"/><path class="cls-32" d="M45.33,86.03c1.71-.23,3.13-.75,4.35-1.71,2.74-2.15,3.75-6.08,2.53-9.8-1.05-3.22-4.15-5.5-7.78-5.57-3.7-.07-7.41,.02-11.11-.06-1.08-.02-1.34,.24-1.33,1.33,.05,8.31,.03,16.61,.03,24.92,0,2.69,0,2.64,2.74,2.62,.86,0,1.02-.31,1-1.08-.05-2.02-.03-4.03-.01-6.05,0-1.39-.49-3.25,.22-4.04,.81-.91,2.72-.17,4.14-.31,.88-.09,1.38,.26,1.84,1,2.01,3.21,4.07,6.38,6.13,9.55,.24,.37,.33,.92,.98,.91,1.26-.02,2.52,0,3.99,0-2.66-4.02-5.15-7.8-7.72-11.69Zm-8.79-2.97c-.64,.01-.82-.2-.8-.82,.04-1.53,.01-3.07,.01-4.6s.03-2.97-.01-4.46c-.02-.67,.17-.91,.88-.9,2.35,.04,4.71-.03,7.06,.03,3,.07,5.11,2.24,5.15,5.23,.04,2.97-2.01,5.33-4.94,5.47-2.44,.12-4.9,.01-7.35,.05Z"/><path class="cls-4" d="M82.37,96.26c-3.25-8.06-6.5-16.11-9.75-24.16-1.31-3.25-1.3-3.21-4.85-3.22-.84,0-1.15,.32-1.42,1.02-1.81,4.57-3.65,9.13-5.48,13.7-1.87,4.64-3.74,9.28-5.69,14.13,1.18,0,2.15-.07,3.1,.02,.94,.09,1.36-.29,1.65-1.14,.49-1.45,1.15-2.83,1.64-4.28,.26-.79,.68-.98,1.47-.98,4.04,.04,8.08,.03,12.12,0,.72,0,1.11,.16,1.36,.9,.55,1.58,1.25,3.1,1.86,4.66,.18,.47,.32,.86,.97,.83,1.14-.05,2.28-.01,3.56-.01-.21-.58-.35-1.03-.53-1.46Zm-19.26-8.33c1.98-5,3.92-9.9,5.96-15.04,2.04,5.18,3.95,10.06,5.91,15.04h-11.86Z"/><path class="cls-13" d="M17.69,34.62c-4.46-3.27-8.93-6.54-13.39-9.81,.2-.6,.81-.62,1.26-.84,3.23-1.54,6.48-3.06,9.72-4.58,.07,.02,.14,.03,.22,.02,2.17,3.82,4.34,7.64,6.5,11.46-1,1.67-2.35,2.96-4.16,3.72h-.07s-.07,.02-.07,.02Z"/><path class="cls-11" d="M29.11,43.27c2.63,4.61,5.26,9.22,7.88,13.83-5.33,0-10.66,0-16.24,0,.93-1.67,1.78-3.2,2.65-4.72,1.59-2.79,3.19-5.57,4.79-8.35,.21-.36,.34-.83,.91-.76Z"/><path class="cls-19" d="M17.84,34.59c1.39-1.24,2.77-2.48,4.16-3.72,.05,0,.11,0,.16,0,1.92,3.37,3.84,6.74,5.75,10.12,.26,.45,.63,.86,.66,1.41-2.62-1.4-4.83-3.4-7.24-5.1-1.2-.85-2.53-1.55-3.49-2.71Z"/><path class="cls-32" d="M233.91,77.01c-.47-4.79-3.78-7.99-8.47-8.07-3.7-.07-7.4,.02-11.1-.06-1-.02-1.15,.33-1.14,1.21,.04,4.37,.02,8.73,.02,13.1v11.95c0,2.63,0,2.57,2.61,2.61,1.01,.02,1.16-.35,1.14-1.23-.05-2.69-.02-5.37-.02-8.06,0-2.18,0-2.15,2.18-2.19,2.73-.05,5.5,.36,8.19-.24,4.24-.93,7-4.84,6.59-9.03Zm-9.18,6c-2.3,.07-4.61,0-6.91,.03-.68,.01-.91-.18-.89-.88,.05-1.53,.02-3.07,.02-4.6,0-1.44,.06-2.88-.02-4.31-.05-.9,.35-.99,1.09-.98,2.21,.04,4.41,0,6.62,.02,3.2,.04,5.36,2.18,5.38,5.28,.02,3.06-2.15,5.33-5.29,5.43Z"/><path class="cls-10" d="M246.09,25.68c-1.32-3.69-3.28-6.96-6.84-8.91-5.32-2.91-13.77-2.31-17.93,5.84-3.66,7.18-3.94,14.76-2.17,22.5,.68,2.96,1.85,5.73,3.72,8.15,5.89,7.61,17.03,6.48,21.74-2.21,2.4-4.43,3.26-9.24,3.24-14.93,.1-3.13-.47-6.85-1.77-10.45Zm-2.88,23.33c-2.05,4.48-5.3,7.38-10.54,7.22-4.96-.15-8.12-3.02-9.87-7.34-3.29-8.11-3.3-16.35,.03-24.44,2.5-6.08,8.37-8.69,14.07-6.54,3.65,1.38,5.59,4.37,6.89,7.82,1.33,3.53,1.82,7.22,1.79,9.49-.01,5.74-.58,9.89-2.37,13.78Z"/><path class="cls-32" d="M250.48,68.92c-3.6-.02-7.21,.02-10.81-.04-.96-.02-1.18,.27-1.17,1.19,.05,4.37,.02,8.73,.02,13.1,0,4.03,0,8.06,0,12.09,0,2.48,0,2.44,2.46,2.48,.91,.01,1.22-.19,1.2-1.16-.07-2.97,.04-5.95-.06-8.92-.04-1.2,.38-1.43,1.47-1.4,2.26,.08,4.52,.04,6.77,.02,5.02-.04,8.55-3.49,8.77-8.18,.24-5.16-3.41-9.14-8.65-9.18Zm-.3,14.07c-2.4,.13-4.8,0-7.2,.04-.78,.01-.84-.36-.83-.97,.03-1.49,0-2.97,0-4.46,0-1.39,.07-2.79-.02-4.17-.07-1.02,.35-1.19,1.24-1.17,2.16,.05,4.32,0,6.49,.02,3.21,.04,5.42,2.17,5.48,5.24,.06,2.92-2.1,5.3-5.16,5.46Z"/><path class="cls-17" d="M91.44,47.59c1.97-1.65,2.54-3.39,1.88-5.5-.6-1.92-2.14-3.05-4.65-3.13-3.64-.11-7.29-.07-10.94-.12-.67,0-.92,.19-.92,.9,.02,5.66,.02,11.31,0,16.97,0,.57,.12,.91,.79,.89,4.17-.13,8.35,.29,12.51-.25,2.7-.35,4.44-2.19,4.73-4.81,.26-2.35-.75-3.87-3.4-4.95Zm-11.34-6.64c1.35,.04,2.69,.01,4.04,.01,1.3,0,2.6-.04,3.89,.01,1.99,.08,3.05,1.01,3.14,2.66,.11,1.85-.83,2.94-2.92,3.17-2.73,.3-5.47,.05-8.21,.13-.68,.02-.79-.31-.78-.88,.02-1.44,.04-2.88,0-4.32-.02-.67,.25-.8,.84-.78Zm10.11,14.14c-1.87,.6-3.81,.14-5.38,.3-1.72,0-3.11-.06-4.5,.02-.93,.06-1.12-.28-1.09-1.13,.07-1.53,.03-3.06,.01-4.59,0-.57,.11-.89,.78-.87,3.2,.1,6.42-.19,9.61,.17,1.69,.19,2.58,1.01,2.72,2.42,.2,1.97-.47,3.14-2.17,3.68Z"/><path class="cls-28" d="M142.33,51.5c-.71-.82-.81-1.32,.43-1.56,.82-.16,1.52-.57,2.14-1.12,1.65-1.47,2.25-4.08,1.42-6.37-.89-2.47-2.95-3.37-5.31-3.48-3.4-.15-6.82-.03-10.23-.08-.94-.01-.97,.48-.97,1.17,.01,5.47,.02,10.93-.01,16.4,0,.88,.27,1.17,1.15,1.16,.82-.01,1.23-.18,1.19-1.12-.07-1.68,0-3.36-.03-5.03-.01-.69,.13-1.07,.94-1.05,1.68,.04,3.36,.03,5.04,0,.6-.01,.95,.26,1.3,.72,1.36,1.73,2.88,3.36,4.11,5.17,.94,1.39,2.07,1.45,3.71,1.12-1.74-2.11-3.29-4.05-4.91-5.94Zm-6.72-3.12c-.72-.07-2.36,.58-3.19-.21-.84-.8-.25-2.45-.27-3.72-.04-3.49-.01-3.49,3.49-3.49,1.58,0,3.17-.04,4.75,.01,2.67,.08,3.97,1.42,3.89,3.91-.06,1.9-1.16,3.06-3.09,3.31-1.67,.22-3.34,.27-5.58,.19Z"/><path class="cls-28" d="M125.86,48.26c.33-5.84-4.14-9.67-9.9-9.64-6.23,.04-9.95,3.62-10.15,9.45-.19,5.88,4.28,9.68,10.04,9.71,5.83,.03,10.39-3.9,10-9.52Zm-10.17,7.42c-4.73-.05-7.54-2.93-7.49-7.7,.04-4.48,3.1-7.34,7.8-7.31,4.78,.04,7.58,2.96,7.52,7.82-.06,4.56-2.97,7.23-7.83,7.18Z"/><path class="cls-3" d="M98.83,33.35c-2.73-5.78-5.48-11.55-8.18-17.35-.33-.7-.8-.76-1.37-.68-.77,.1-1.65-.4-2.2,.74-1.68,3.43-3.48,6.8-5.23,10.19-1.31,2.53-2.61,5.07-3.93,7.63,1.71,.44,2.86,.12,3.4-1.62,.25-.81,.82-1.51,1.14-2.31,.31-.77,.77-1.06,1.62-1.04,2.16,.06,4.35,.25,6.48-.03,2.89-.39,4.58,.59,5.27,3.4,.41,1.68,1.51,2.11,3.14,1.59-.04-.17-.06-.37-.14-.53Zm-5.77-6.44c-2.68,0-5.4-.02-8.13,0-.97,0-.71-.42-.43-.95,1.41-2.75,2.81-5.5,4.37-8.57,1.43,3.05,2.74,5.83,4.03,8.62,.11,.24,.35,.48,.16,.89Z"/><path class="cls-3" d="M168.18,33.24c-2.7-5.74-5.42-11.47-8.1-17.22-.31-.66-.76-.79-1.36-.69-.77,.13-1.67-.44-2.24,.7-1.73,3.51-3.57,6.97-5.36,10.45-1.26,2.45-2.52,4.89-3.8,7.39,1.83,.51,2.87,.02,3.39-1.64,.26-.85,.87-1.59,1.22-2.42,.29-.68,.7-.89,1.42-.87,2.21,.05,4.45,.24,6.62-.04,2.82-.37,4.53,.53,5.22,3.31,.42,1.71,1.53,2.22,3.22,1.7-.07-.22-.13-.45-.23-.66Zm-14.73-6.41c1.61-3.15,3.16-6.18,4.82-9.42,1.5,3.21,2.92,6.25,4.4,9.42h-9.22Z"/></g></svg>